<?xml version="1.0" encoding="UTF-8" standalone="no" ?>
<!DOCTYPE svg PUBLIC "-//W3C//DTD SVG 1.1//EN" "http://www.w3.org/Graphics/SVG/1.1/DTD/svg11.dtd">
<svg xmlns="http://www.w3.org/2000/svg" xmlns:xlink="http://www.w3.org/1999/xlink" version="1.1" width="1080" height="1080" viewBox="0 0 1080 1080" xml:space="preserve">
<desc>Created with Fabric.js 5.2.4</desc>
<defs>
</defs>
<rect x="0" y="0" width="100%" height="100%" fill="transparent"></rect>
<g transform="matrix(1 0 0 1 540 540)" id="d147ef3e-b698-432c-bd74-2339187d1966"  >
<rect style="stroke: none; stroke-width: 1; stroke-dasharray: none; stroke-linecap: butt; stroke-dashoffset: 0; stroke-linejoin: miter; stroke-miterlimit: 4; fill: rgb(255,255,255); fill-rule: nonzero; opacity: 1; visibility: hidden;" vector-effect="non-scaling-stroke"  x="-540" y="-540" rx="0" ry="0" width="1080" height="1080" />
</g>
<g transform="matrix(1 0 0 1 540 540)" id="ab00d2e7-f043-4c2c-899d-3a5932d2ea8f"  >
</g>
<g transform="matrix(2.11 0 0 2.11 540 540)"  >
<path style="stroke: rgb(0,0,0); stroke-width: 0; stroke-dasharray: none; stroke-linecap: butt; stroke-dashoffset: 0; stroke-linejoin: miter; stroke-miterlimit: 4; fill: rgb(0,0,0); fill-rule: nonzero; opacity: 1;"  transform=" translate(-256, -256)" d="M 268.608 25.48 C 242.138 25.677 225.04000000000002 31.014 213.251 39.230000000000004 C 199.778 48.620000000000005 192.215 62.382000000000005 186.171 80.20400000000001 C 188.733 101.13600000000001 210.111 128.394 205.828 150.584 C 189.348 122.372 172.362 82.596 142.518 74.468 C 125.443 69.848 105.97800000000001 68.666 98.97800000000001 73.03200000000001 C 90.70500000000001 78.19200000000001 85.168 87.79200000000002 82.03500000000001 99.88600000000001 C 78.903 111.98100000000001 78.37500000000001 126.123 79.34500000000001 138.171 C 81.77700000000002 168.305 104.12900000000002 213.168 126.26500000000001 249.264 C 142.84500000000003 276.29900000000004 159.04500000000002 298.68 166.13500000000002 308.217 C 173.66422991301008 306.0045301523688 181.28848833139395 304.1293296135803 188.9849999999999 302.597 C 187.447 284.577 190.369 267.924 189.81300000000002 248.64999999999998 C 194.019 266.84 197.65300000000002 283.226 204.08800000000002 300.01 C 216.47100000000003 298.238 229.50800000000004 297.21 242.93800000000002 297.19 C 252.3761357617355 297.16865048848064 261.80853768471434 297.657028320209 271.19399999999996 298.65299999999996 L 285.41400000000004 257.091 L 283.04100000000005 300.194 C 300.15900000000005 302.838 317.45300000000003 307.35200000000003 334.42100000000005 314.172 C 346.63100000000003 301.41400000000004 351.29800000000006 286.77000000000004 359.41100000000006 272.98600000000005 C 359.8090000000001 288.98900000000003 354.90400000000005 304.88200000000006 344.35900000000004 318.45000000000005 C 353.261 322.55000000000007 362.04300000000006 327.32000000000005 370.62700000000007 332.83000000000004 C 412.1410000000001 265.68000000000006 437.31700000000006 199.34000000000003 432.51200000000006 134.13000000000005 C 431.01500000000004 113.80000000000005 426.42400000000004 95.94300000000005 419.82200000000006 83.02500000000006 C 413.22200000000004 70.10500000000006 404.99500000000006 62.58100000000006 396.32900000000006 60.32100000000006 C 389.34400000000005 58.49900000000006 371.5040000000001 63.149000000000065 356.88900000000007 69.81700000000006 C 329.94200000000006 80.62700000000007 308.38900000000007 115.53400000000006 300.99500000000006 139.34700000000007 C 300.7420000000001 127.70700000000006 303.99800000000005 94.95700000000006 316.94200000000006 78.64900000000006 C 312.96200000000005 66.07900000000006 310.0280000000001 52.25500000000006 304.8570000000001 42.287000000000056 C 294.4150000000001 26.172000000000057 284.6210000000001 25.377000000000056 268.61000000000007 25.481000000000055 z M 241.772 315.33000000000004 C 215.78699999999998 315.45300000000003 191.382 319.52200000000005 171.002 325.54400000000004 L 159.376 424.504 C 169.536 418.85400000000004 181.696 415.36 194.69400000000002 413.334 C 204.65200000000002 411.781 215.22400000000002 411.101 226.056 411.164 C 227.603 411.174 229.156 411.198 230.714 411.23699999999997 C 243.171 411.54999999999995 255.904 412.80699999999996 268.388 414.81899999999996 C 293.35299999999995 418.842 317.24199999999996 425.86299999999994 335.851 434.99399999999997 C 343.195 438.59799999999996 349.945 442.49399999999997 355.568 446.89399999999995 L 363.89799999999997 349.94899999999996 C 325.43399999999997 324.27899999999994 281.74499999999995 315.13899999999995 241.77299999999997 315.32899999999995 z M 225.932 429.19000000000005 C 215.915 429.13000000000005 206.27999999999997 429.744 197.468 431.11800000000005 C 181.35199999999998 433.63100000000003 168.42399999999998 438.73800000000006 160.29999999999998 445.82500000000005 C 210.71699999999998 492.41 283.67999999999995 497.855 350.673 468.05000000000007 C 346.887 463.06000000000006 339.286 456.7300000000001 327.921 451.1530000000001 C 311.554 443.1210000000001 288.991 436.3730000000001 265.52299999999997 432.59100000000007 C 252.32299999999998 430.46400000000006 238.81299999999996 429.2710000000001 225.93299999999996 429.1910000000001 z" stroke-linecap="round" />
</g>
</svg>